<?xml version="1.0" encoding="utf-8"?><svg xmlns="http://www.w3.org/2000/svg" xmlns:xlink="http://www.w3.org/1999/xlink" width="1600" height="788" preserveAspectRatio="xMidYMid" viewBox="0 0 1600 788" style="z-index:1;display:block;background-color:rgb(241, 242, 243);animation-play-state:paused" ><g transform="translate(800,394) scale(1,1) translate(-800,-394)" style="animation-play-state:paused" ><path d="M8 -82.73693246698895L8 0Z" stroke-width="16" stroke-linecap="round" stroke-linejoin="round" stroke="#689cc5" transform="matrix(1,0,0,1,0,298.73394775390625)" opacity="1" style="animation-play-state:paused" ></path>
<path d="M8 -48.13441742489886L8 0Z" stroke-width="16" stroke-linecap="round" stroke-linejoin="round" stroke="#689cc5" transform="matrix(1,0,0,1,0,490.8515319824219)" opacity="0.281" style="opacity:0.281;animation-play-state:paused" ></path>
<path d="M8 -34.14029380067768L8 0Z" stroke-width="16" stroke-linecap="round" stroke-linejoin="round" stroke="#d9dbee" transform="matrix(1,0,0,1,0,154.35975646972656)" opacity="1" style="animation-play-state:paused" ></path>
<path d="M40 -74.98991316340107L40 0Z" stroke-width="16" stroke-linecap="round" stroke-linejoin="round" stroke="#b3b7e2" transform="matrix(1,0,0,1,0,245.89382934570312)" opacity="1" style="animation-play-state:paused" ></path>
<path d="M40 -6.824349913840706L40 0Z" stroke-width="16" stroke-linecap="round" stroke-linejoin="round" stroke="#d9dbee" transform="matrix(1,0,0,1,0,225.6107177734375)" opacity="1" style="animation-play-state:paused" ></path>
<path d="M40 -23.846074851629965L40 0Z" stroke-width="16" stroke-linecap="round" stroke-linejoin="round" stroke="#191d3a" transform="matrix(1,0,0,1,0,102.76781463623047)" opacity="1" style="animation-play-state:paused" ></path>
<path d="M72 -20.266316885798005L72 0Z" stroke-width="16" stroke-linecap="round" stroke-linejoin="round" stroke="#b3b7e2" transform="matrix(1,0,0,1,0,84.72950744628906)" opacity="1" style="animation-play-state:paused" ></path>
<path d="M72 -40.10208392273489L72 0Z" stroke-width="16" stroke-linecap="round" stroke-linejoin="round" stroke="#d9dbee" transform="matrix(1,0,0,1,0,511.0306396484375)" opacity="0.087" style="opacity:0.087;animation-play-state:paused" ></path>
<path d="M72 -67.12034465048055L72 0Z" stroke-width="16" stroke-linecap="round" stroke-linejoin="round" stroke="#5e6fa3" transform="matrix(1,0,0,1,0,99.64733123779297)" opacity="1" style="animation-play-state:paused" ></path>
<path d="M104 -36.72069887891121L104 0Z" stroke-width="16" stroke-linecap="round" stroke-linejoin="round" stroke="#b3b7e2" transform="matrix(1,0,0,1,0,406.70257568359375)" opacity="1" style="animation-play-state:paused" ></path>
<path d="M104 -72.25523410545429L104 0Z" stroke-width="16" stroke-linecap="round" stroke-linejoin="round" stroke="#689cc5" transform="matrix(1,0,0,1,0,459.380615234375)" opacity="0.583558" style="opacity:0.583558;animation-play-state:paused" ></path>
<path d="M104 -41.59810161501082L104 0Z" stroke-width="16" stroke-linecap="round" stroke-linejoin="round" stroke="#689cc5" transform="matrix(1,0,0,1,0,149.4189910888672)" opacity="1" style="animation-play-state:paused" ></path>
<path d="M136 -43.62871687032748L136 0Z" stroke-width="16" stroke-linecap="round" stroke-linejoin="round" stroke="#3b4368" transform="matrix(1,0,0,1,0,116.7176284790039)" opacity="1" style="animation-play-state:paused" ></path>
<path d="M136 -83.58734846882726L136 0Z" stroke-width="16" stroke-linecap="round" stroke-linejoin="round" stroke="#3b4368" transform="matrix(1,0,0,1,0,173.828125)" opacity="1" style="animation-play-state:paused" ></path>
<path d="M136 -71.59521703332575L136 0Z" stroke-width="16" stroke-linecap="round" stroke-linejoin="round" stroke="#b3b7e2" transform="matrix(1,0,0,1,0,463.2815856933594)" opacity="0.546055" style="opacity:0.546055;animation-play-state:paused" ></path>
<path d="M168 -102.11698723281734L168 0Z" stroke-width="16" stroke-linecap="round" stroke-linejoin="round" stroke="#5e6fa3" transform="matrix(1,0,0,1,0,340.13232421875)" opacity="1" style="animation-play-state:paused" ></path>
<path d="M168 -30.051453506304824L168 0Z" stroke-width="16" stroke-linecap="round" stroke-linejoin="round" stroke="#689cc5" transform="matrix(1,0,0,1,0,493.3972473144531)" opacity="0.256526" style="opacity:0.256526;animation-play-state:paused" ></path>
<path d="M168 -51.625946569562075L168 0Z" stroke-width="16" stroke-linecap="round" stroke-linejoin="round" stroke="#d9dbee" transform="matrix(1,0,0,1,0,144.64871215820312)" opacity="1" style="animation-play-state:paused" ></path>
<path d="M200 -48.26195810522768L200 0Z" stroke-width="16" stroke-linecap="round" stroke-linejoin="round" stroke="#93dbe9" transform="matrix(1,0,0,1,0,275.5659484863281)" opacity="1" style="animation-play-state:paused" ></path>
<path d="M200 -36.90990208234871L200 0Z" stroke-width="16" stroke-linecap="round" stroke-linejoin="round" stroke="#93dbe9" transform="matrix(1,0,0,1,0,11.5457763671875)" opacity="1" style="animation-play-state:paused" ></path>
<path d="M200 -69.74374299995543L200 0Z" stroke-width="16" stroke-linecap="round" stroke-linejoin="round" stroke="#689cc5" transform="matrix(1,0,0,1,0,68.34535217285156)" opacity="1" style="animation-play-state:paused" ></path>
<path d="M232 -36.73560568788889L232 0Z" stroke-width="16" stroke-linecap="round" stroke-linejoin="round" stroke="#689cc5" transform="matrix(1,0,0,1,0,436.4511413574219)" opacity="0.804" style="opacity:0.804;animation-play-state:paused" ></path>
<path d="M232 -77.62973033430171L232 0Z" stroke-width="16" stroke-linecap="round" stroke-linejoin="round" stroke="#b3b7e2" transform="matrix(1,0,0,1,0,22.779504776000977)" opacity="1" style="animation-play-state:paused" ></path>
<path d="M232 -76.49518079550762L232 0Z" stroke-width="16" stroke-linecap="round" stroke-linejoin="round" stroke="#3b4368" transform="matrix(1,0,0,1,0,149.1738739013672)" opacity="1" style="animation-play-state:paused" ></path>
<path d="M264 -31.6270029853913L264 0Z" stroke-width="16" stroke-linecap="round" stroke-linejoin="round" stroke="#191d3a" transform="matrix(1,0,0,1,0,333.4753112792969)" opacity="1" style="animation-play-state:paused" ></path>
<path d="M264 -55.82291577280557L264 0Z" stroke-width="16" stroke-linecap="round" stroke-linejoin="round" stroke="#b3b7e2" transform="matrix(1,0,0,1,0,472.96075439453125)" opacity="0.453" style="opacity:0.453;animation-play-state:paused" ></path>
<path d="M264 -78.56717374714935L264 0Z" stroke-width="16" stroke-linecap="round" stroke-linejoin="round" stroke="#191d3a" transform="matrix(1,0,0,1,0,53.98430633544922)" opacity="1" style="animation-play-state:paused" ></path>
<path d="M296 -22.329777909041695L296 0Z" stroke-width="16" stroke-linecap="round" stroke-linejoin="round" stroke="#5e6fa3" transform="matrix(1,0,0,1,0,152.27943420410156)" opacity="1" style="animation-play-state:paused" ></path>
<path d="M296 -76.10537322636628L296 0Z" stroke-width="16" stroke-linecap="round" stroke-linejoin="round" stroke="#5e6fa3" transform="matrix(1,0,0,1,0,296.1335754394531)" opacity="1" style="animation-play-state:paused" ></path>
<path d="M296 -8.093454576001022L296 0Z" stroke-width="16" stroke-linecap="round" stroke-linejoin="round" stroke="#689cc5" transform="matrix(1,0,0,1,0,229.22218322753906)" opacity="1" style="animation-play-state:paused" ></path>
<path d="M328 -4.652938256225752L328 0Z" stroke-width="16" stroke-linecap="round" stroke-linejoin="round" stroke="#191d3a" transform="matrix(1,0,0,1,0,22.781782150268555)" opacity="1" style="animation-play-state:paused" ></path>
<path d="M328 -10.573036066438362L328 0Z" stroke-width="16" stroke-linecap="round" stroke-linejoin="round" stroke="#689cc5" transform="matrix(1,0,0,1,0,448.82904052734375)" opacity="0.685" style="opacity:0.685;animation-play-state:paused" ></path>
<path d="M328 -73.70486958953552L328 0Z" stroke-width="16" stroke-linecap="round" stroke-linejoin="round" stroke="#5e6fa3" transform="matrix(1,0,0,1,0,295.3829650878906)" opacity="1" style="animation-play-state:paused" ></path>
<path d="M360 -40.99250270258926L360 0Z" stroke-width="16" stroke-linecap="round" stroke-linejoin="round" stroke="#3b4368" transform="matrix(1,0,0,1,0,255.15126037597656)" opacity="1" style="animation-play-state:paused" ></path>
<path d="M360 -37.38162367627956L360 0Z" stroke-width="16" stroke-linecap="round" stroke-linejoin="round" stroke="#3b4368" transform="matrix(1,0,0,1,0,261.9905090332031)" opacity="1" style="animation-play-state:paused" ></path>
<path d="M360 -13.85863762434019L360 0Z" stroke-width="16" stroke-linecap="round" stroke-linejoin="round" stroke="#5e6fa3" transform="matrix(1,0,0,1,0,327.91046142578125)" opacity="1" style="animation-play-state:paused" ></path>
<path d="M392 -68.42451577250176L392 0Z" stroke-width="16" stroke-linecap="round" stroke-linejoin="round" stroke="#191d3a" transform="matrix(1,0,0,1,0,422.40899658203125)" opacity="0.939" style="opacity:0.939;animation-play-state:paused" ></path>
<path d="M392 -32.821854712652566L392 0Z" stroke-width="16" stroke-linecap="round" stroke-linejoin="round" stroke="#5e6fa3" transform="matrix(1,0,0,1,0,297.2257385253906)" opacity="1" style="animation-play-state:paused" ></path>
<path d="M392 -24.502889527277148L392 0Z" stroke-width="16" stroke-linecap="round" stroke-linejoin="round" stroke="#93dbe9" transform="matrix(1,0,0,1,0,154.6717987060547)" opacity="1" style="animation-play-state:paused" ></path>
<path d="M424 -14.194140908075497L424 0Z" stroke-width="16" stroke-linecap="round" stroke-linejoin="round" stroke="#b3b7e2" transform="matrix(1,0,0,1,0,85.82178497314453)" opacity="1" style="animation-play-state:paused" ></path>
<path d="M424 -99.37194311475832L424 0Z" stroke-width="16" stroke-linecap="round" stroke-linejoin="round" stroke="#d9dbee" transform="matrix(1,0,0,1,0,105.26419830322266)" opacity="1" style="animation-play-state:paused" ></path>
<path d="M424 -66.54322566072369L424 0Z" stroke-width="16" stroke-linecap="round" stroke-linejoin="round" stroke="#5e6fa3" transform="matrix(1,0,0,1,0,239.6528778076172)" opacity="1" style="animation-play-state:paused" ></path>
<path d="M456 -50.48037156264763L456 0Z" stroke-width="16" stroke-linecap="round" stroke-linejoin="round" stroke="#d9dbee" transform="matrix(1,0,0,1,0,95.4962387084961)" opacity="1" style="animation-play-state:paused" ></path>
<path d="M456 -50.798195986681094L456 0Z" stroke-width="16" stroke-linecap="round" stroke-linejoin="round" stroke="#191d3a" transform="matrix(1,0,0,1,0,217.75750732421875)" opacity="1" style="animation-play-state:paused" ></path>
<path d="M456 -33.40628050462692L456 0Z" stroke-width="16" stroke-linecap="round" stroke-linejoin="round" stroke="#93dbe9" transform="matrix(1,0,0,1,0,397.58892822265625)" opacity="1" style="animation-play-state:paused" ></path>
<path d="M488 -20.63034267048988L488 0Z" stroke-width="16" stroke-linecap="round" stroke-linejoin="round" stroke="#93dbe9" transform="matrix(1,0,0,1,0,17.682720184326172)" opacity="1" style="animation-play-state:paused" ></path>
<path d="M488 -64.81155290572315L488 0Z" stroke-width="16" stroke-linecap="round" stroke-linejoin="round" stroke="#d9dbee" transform="matrix(1,0,0,1,0,307.99139404296875)" opacity="1" style="animation-play-state:paused" ></path>
<path d="M488 -85.76215552832855L488 0Z" stroke-width="16" stroke-linecap="round" stroke-linejoin="round" stroke="#5e6fa3" transform="matrix(1,0,0,1,0,382.7268981933594)" opacity="1" style="animation-play-state:paused" ></path>
<path d="M520 -55.0323681403097L520 0Z" stroke-width="16" stroke-linecap="round" stroke-linejoin="round" stroke="#3b4368" transform="matrix(1,0,0,1,0,4.83674430847168)" opacity="1" style="animation-play-state:paused" ></path>
<path d="M520 -68.05736296910618L520 0Z" stroke-width="16" stroke-linecap="round" stroke-linejoin="round" stroke="#3b4368" transform="matrix(1,0,0,1,0,225.1651611328125)" opacity="1" style="animation-play-state:paused" ></path>
<path d="M520 -38.995321073896775L520 0Z" stroke-width="16" stroke-linecap="round" stroke-linejoin="round" stroke="#93dbe9" transform="matrix(1,0,0,1,0,415.3359069824219)" opacity="1" style="animation-play-state:paused" ></path>
<path d="M552 -91.39996873367636L552 0Z" stroke-width="16" stroke-linecap="round" stroke-linejoin="round" stroke="#3b4368" transform="matrix(1,0,0,1,0,326.9029846191406)" opacity="1" style="animation-play-state:paused" ></path>
<path d="M552 -75.442304451979L552 0Z" stroke-width="16" stroke-linecap="round" stroke-linejoin="round" stroke="#191d3a" transform="matrix(1,0,0,1,0,378.7222595214844)" opacity="1" style="animation-play-state:paused" ></path>
<path d="M552 -34.784438453250914L552 0Z" stroke-width="16" stroke-linecap="round" stroke-linejoin="round" stroke="#3b4368" transform="matrix(1,0,0,1,0,472.1286315917969)" opacity="0.461" style="opacity:0.461;animation-play-state:paused" ></path>
<path d="M584 -26.47945863158384L584 0Z" stroke-width="16" stroke-linecap="round" stroke-linejoin="round" stroke="#191d3a" transform="matrix(1,0,0,1,0,75.41160583496094)" opacity="1" style="animation-play-state:paused" ></path>
<path d="M584 -58.89804779602855L584 0Z" stroke-width="16" stroke-linecap="round" stroke-linejoin="round" stroke="#d9dbee" transform="matrix(1,0,0,1,0,344.223388671875)" opacity="1" style="animation-play-state:paused" ></path>
<path d="M584 -126.15380935124995L584 0Z" stroke-width="16" stroke-linecap="round" stroke-linejoin="round" stroke="#689cc5" transform="matrix(1,0,0,1,0,437.28326416015625)" opacity="0.796" style="opacity:0.796;animation-play-state:paused" ></path>
<path d="M616 -64.16853253328009L616 0Z" stroke-width="16" stroke-linecap="round" stroke-linejoin="round" stroke="#689cc5" transform="matrix(1,0,0,1,0,193.33306884765625)" opacity="1" style="animation-play-state:paused" ></path>
<path d="M616 -33.266630095255096L616 0Z" stroke-width="16" stroke-linecap="round" stroke-linejoin="round" stroke="#93dbe9" transform="matrix(1,0,0,1,0,382.2970275878906)" opacity="1" style="animation-play-state:paused" ></path>
<path d="M616 -14.73137769684763L616 0Z" stroke-width="16" stroke-linecap="round" stroke-linejoin="round" stroke="#5e6fa3" transform="matrix(1,0,0,1,0,245.2697296142578)" opacity="1" style="animation-play-state:paused" ></path>
<path d="M648 -85.62177154981327L648 0Z" stroke-width="16" stroke-linecap="round" stroke-linejoin="round" stroke="#d9dbee" transform="matrix(1,0,0,1,0,232.3717498779297)" opacity="1" style="animation-play-state:paused" ></path>
<path d="M648 -85.49167565221796L648 0Z" stroke-width="16" stroke-linecap="round" stroke-linejoin="round" stroke="#3b4368" transform="matrix(1,0,0,1,0,187.403564453125)" opacity="1" style="animation-play-state:paused" ></path>
<path d="M648 -62.00755632479559L648 0Z" stroke-width="16" stroke-linecap="round" stroke-linejoin="round" stroke="#191d3a" transform="matrix(1,0,0,1,0,349.8407897949219)" opacity="1" style="animation-play-state:paused" ></path>
<path d="M680 -54.9506346432463L680 0Z" stroke-width="16" stroke-linecap="round" stroke-linejoin="round" stroke="#93dbe9" transform="matrix(1,0,0,1,0,381.6867370605469)" opacity="1" style="animation-play-state:paused" ></path>
<path d="M680 -21.53498446942467L680 0Z" stroke-width="16" stroke-linecap="round" stroke-linejoin="round" stroke="#191d3a" transform="matrix(1,0,0,1,0,467.65069580078125)" opacity="0.50405" style="opacity:0.50405;animation-play-state:paused" ></path>
<path d="M680 -30.611076220189716L680 0Z" stroke-width="16" stroke-linecap="round" stroke-linejoin="round" stroke="#3b4368" transform="matrix(1,0,0,1,0,134.8047332763672)" opacity="1" style="animation-play-state:paused" ></path>
<path d="M712 -7.8920009885732725L712 0Z" stroke-width="16" stroke-linecap="round" stroke-linejoin="round" stroke="#5e6fa3" transform="matrix(1,0,0,1,0,426.9856872558594)" opacity="0.895" style="opacity:0.895;animation-play-state:paused" ></path>
<path d="M712 -56.39208741841139L712 0Z" stroke-width="16" stroke-linecap="round" stroke-linejoin="round" stroke="#93dbe9" transform="matrix(1,0,0,1,0,65.06201171875)" opacity="1" style="animation-play-state:paused" ></path>
<path d="M712 -66.64735971992923L712 0Z" stroke-width="16" stroke-linecap="round" stroke-linejoin="round" stroke="#d9dbee" transform="matrix(1,0,0,1,0,413.8170471191406)" opacity="1" style="animation-play-state:paused" ></path>
<path d="M744 -63.85940120398118L744 0Z" stroke-width="16" stroke-linecap="round" stroke-linejoin="round" stroke="#689cc5" transform="matrix(1,0,0,1,0,449.34912109375)" opacity="0.68" style="opacity:0.68;animation-play-state:paused" ></path>
<path d="M744 -66.54037082078139L744 0Z" stroke-width="16" stroke-linecap="round" stroke-linejoin="round" stroke="#5e6fa3" transform="matrix(1,0,0,1,0,105.05615997314453)" opacity="1" style="animation-play-state:paused" ></path>
<path d="M744 -1.2816285492426687L744 0Z" stroke-width="16" stroke-linecap="round" stroke-linejoin="round" stroke="#b3b7e2" transform="matrix(1,0,0,1,0,391.5682373046875)" opacity="1" style="animation-play-state:paused" ></path>
<path d="M776 -96.75598806412745L776 0Z" stroke-width="16" stroke-linecap="round" stroke-linejoin="round" stroke="#191d3a" transform="matrix(1,0,0,1,0,466.7144775390625)" opacity="0.513051" style="opacity:0.513051;animation-play-state:paused" ></path>
<path d="M776 -22.769404399987252L776 0Z" stroke-width="16" stroke-linecap="round" stroke-linejoin="round" stroke="#5e6fa3" transform="matrix(1,0,0,1,0,422.3049621582031)" opacity="0.94" style="opacity:0.94;animation-play-state:paused" ></path>
<path d="M776 -53.20780119590927L776 0Z" stroke-width="16" stroke-linecap="round" stroke-linejoin="round" stroke="#b3b7e2" transform="matrix(1,0,0,1,0,25.89998435974121)" opacity="1" style="animation-play-state:paused" ></path>
<path d="M808 -56.732011289845104L808 0Z" stroke-width="16" stroke-linecap="round" stroke-linejoin="round" stroke="#d9dbee" transform="matrix(1,0,0,1,0,94.09188079833984)" opacity="1" style="animation-play-state:paused" ></path>
<path d="M808 -62.10813518026407L808 0Z" stroke-width="16" stroke-linecap="round" stroke-linejoin="round" stroke="#191d3a" transform="matrix(1,0,0,1,0,341.5707092285156)" opacity="1" style="animation-play-state:paused" ></path>
<path d="M808 -65.20788737331895L808 0Z" stroke-width="16" stroke-linecap="round" stroke-linejoin="round" stroke="#93dbe9" transform="matrix(1,0,0,1,0,427.54852294921875)" opacity="0.889589" style="opacity:0.889589;animation-play-state:paused" ></path>
<path d="M840 -83.38701844790921L840 0Z" stroke-width="16" stroke-linecap="round" stroke-linejoin="round" stroke="#689cc5" transform="matrix(1,0,0,1,0,373.573486328125)" opacity="1" style="animation-play-state:paused" ></path>
<path d="M840 -0.30510567257442744L840 0Z" stroke-width="16" stroke-linecap="round" stroke-linejoin="round" stroke="#d9dbee" transform="matrix(1,0,0,1,0,392.14031982421875)" opacity="1" style="animation-play-state:paused" ></path>
<path d="M840 -116.82214480859693L840 0Z" stroke-width="16" stroke-linecap="round" stroke-linejoin="round" stroke="#d9dbee" transform="matrix(1,0,0,1,0,119.05821990966797)" opacity="1" style="animation-play-state:paused" ></path>
<path d="M872 -14.706635500653647L872 0Z" stroke-width="16" stroke-linecap="round" stroke-linejoin="round" stroke="#d9dbee" transform="matrix(1,0,0,1,0,348.03753662109375)" opacity="1" style="animation-play-state:paused" ></path>
<path d="M872 -84.43168741797854L872 0Z" stroke-width="16" stroke-linecap="round" stroke-linejoin="round" stroke="#5e6fa3" transform="matrix(1,0,0,1,0,276.2665100097656)" opacity="1" style="animation-play-state:paused" ></path>
<path d="M872 -19.216855882932578L872 0Z" stroke-width="16" stroke-linecap="round" stroke-linejoin="round" stroke="#b3b7e2" transform="matrix(1,0,0,1,0,226.7548828125)" opacity="1" style="animation-play-state:paused" ></path>
<path d="M904 -8.806507066074118L904 0Z" stroke-width="16" stroke-linecap="round" stroke-linejoin="round" stroke="#689cc5" transform="matrix(1,0,0,1,0,32.45623779296875)" opacity="1" style="animation-play-state:paused" ></path>
<path d="M904 -35.82024493523204L904 0Z" stroke-width="16" stroke-linecap="round" stroke-linejoin="round" stroke="#d9dbee" transform="matrix(1,0,0,1,0,89.7227783203125)" opacity="1" style="animation-play-state:paused" ></path>
<path d="M904 -14.500633258889138L904 0Z" stroke-width="16" stroke-linecap="round" stroke-linejoin="round" stroke="#191d3a" transform="matrix(1,0,0,1,0,340.3223876953125)" opacity="1" style="animation-play-state:paused" ></path>
<path d="M936 -89.16658093575097L936 0Z" stroke-width="16" stroke-linecap="round" stroke-linejoin="round" stroke="#93dbe9" transform="matrix(1,0,0,1,0,133.3485107421875)" opacity="1" style="animation-play-state:paused" ></path>
<path d="M936 -0.45239627447881503L936 0Z" stroke-width="16" stroke-linecap="round" stroke-linejoin="round" stroke="#191d3a" transform="matrix(1,0,0,1,0,6.1889519691467285)" opacity="1" style="animation-play-state:paused" ></path>
<path d="M936 -75.27944689282594L936 0Z" stroke-width="16" stroke-linecap="round" stroke-linejoin="round" stroke="#93dbe9" transform="matrix(1,0,0,1,0,41.55439376831055)" opacity="1" style="animation-play-state:paused" ></path>
<path d="M968 -50.393135515012546L968 0Z" stroke-width="16" stroke-linecap="round" stroke-linejoin="round" stroke="#d9dbee" transform="matrix(1,0,0,1,0,189.5691680908203)" opacity="1" style="animation-play-state:paused" ></path>
<path d="M968 -19.0679770127972L968 0Z" stroke-width="16" stroke-linecap="round" stroke-linejoin="round" stroke="#689cc5" transform="matrix(1,0,0,1,0,366.96844482421875)" opacity="1" style="animation-play-state:paused" ></path>
<path d="M968 -12.432169436659024L968 0Z" stroke-width="16" stroke-linecap="round" stroke-linejoin="round" stroke="#3b4368" transform="matrix(1,0,0,1,0,6.657024383544922)" opacity="1" style="animation-play-state:paused" ></path>
<path d="M1000 -41.39556671700484L1000 0Z" stroke-width="16" stroke-linecap="round" stroke-linejoin="round" stroke="#d9dbee" transform="matrix(1,0,0,1,0,337.0118408203125)" opacity="1" style="animation-play-state:paused" ></path>
<path d="M1000 -1.3505723741591282L1000 0Z" stroke-width="16" stroke-linecap="round" stroke-linejoin="round" stroke="#5e6fa3" transform="matrix(1,0,0,1,0,484.974609375)" opacity="0.3375" style="opacity:0.3375;animation-play-state:paused" ></path>
<path d="M1000 -38.7741765829287L1000 0Z" stroke-width="16" stroke-linecap="round" stroke-linejoin="round" stroke="#93dbe9" transform="matrix(1,0,0,1,0,168.210693359375)" opacity="1" style="animation-play-state:paused" ></path>
<path d="M1032 -15.27491132470459L1032 0Z" stroke-width="16" stroke-linecap="round" stroke-linejoin="round" stroke="#93dbe9" transform="matrix(1,0,0,1,0,46.96792221069336)" opacity="1" style="animation-play-state:paused" ></path>
<path d="M1032 -25.435197476319445L1032 0Z" stroke-width="16" stroke-linecap="round" stroke-linejoin="round" stroke="#93dbe9" transform="matrix(1,0,0,1,0,442.2760314941406)" opacity="0.748" style="opacity:0.748;animation-play-state:paused" ></path>
<path d="M1032 -72.47253957769135L1032 0Z" stroke-width="16" stroke-linecap="round" stroke-linejoin="round" stroke="#b3b7e2" transform="matrix(1,0,0,1,0,285.0843505859375)" opacity="1" style="animation-play-state:paused" ></path>
<path d="M1064 -49.93713444436071L1064 0Z" stroke-width="16" stroke-linecap="round" stroke-linejoin="round" stroke="#3b4368" transform="matrix(1,0,0,1,0,21.845544815063477)" opacity="1" style="animation-play-state:paused" ></path>
<path d="M1064 -5.369441670783999L1064 0Z" stroke-width="16" stroke-linecap="round" stroke-linejoin="round" stroke="#93dbe9" transform="matrix(1,0,0,1,0,166.42559814453125)" opacity="1" style="animation-play-state:paused" ></path>
<path d="M1064 -79.3420257973412L1064 0Z" stroke-width="16" stroke-linecap="round" stroke-linejoin="round" stroke="#3b4368" transform="matrix(1,0,0,1,0,276.0584716796875)" opacity="1" style="animation-play-state:paused" ></path>
<path d="M1096 -30.758257084089564L1096 0Z" stroke-width="16" stroke-linecap="round" stroke-linejoin="round" stroke="#3b4368" transform="matrix(1,0,0,1,0,104.1200180053711)" opacity="1" style="animation-play-state:paused" ></path>
<path d="M1096 -10.302218423326849L1096 0Z" stroke-width="16" stroke-linecap="round" stroke-linejoin="round" stroke="#3b4368" transform="matrix(1,0,0,1,0,203.559326171875)" opacity="1" style="animation-play-state:paused" ></path>
<path d="M1096 -7.9916058540547965L1096 0Z" stroke-width="16" stroke-linecap="round" stroke-linejoin="round" stroke="#d9dbee" transform="matrix(1,0,0,1,0,467.1825866699219)" opacity="0.508551" style="opacity:0.508551;animation-play-state:paused" ></path>
<path d="M1128 -10.42422243130568L1128 0Z" stroke-width="16" stroke-linecap="round" stroke-linejoin="round" stroke="#3b4368" transform="matrix(1,0,0,1,0,35.885520935058594)" opacity="1" style="animation-play-state:paused" ></path>
<path d="M1128 -68.67948630911269L1128 0Z" stroke-width="16" stroke-linecap="round" stroke-linejoin="round" stroke="#689cc5" transform="matrix(1,0,0,1,0,151.65533447265625)" opacity="1" style="animation-play-state:paused" ></path>
<path d="M1128 -70.7787856586001L1128 0Z" stroke-width="16" stroke-linecap="round" stroke-linejoin="round" stroke="#b3b7e2" transform="matrix(1,0,0,1,0,144.64871215820312)" opacity="1" style="animation-play-state:paused" ></path>
<path d="M1160 -130.12709726554203L1160 0Z" stroke-width="16" stroke-linecap="round" stroke-linejoin="round" stroke="#93dbe9" transform="matrix(1,0,0,1,0,397.6011657714844)" opacity="1" style="animation-play-state:paused" ></path>
<path d="M1160 -123.18252331823896L1160 0Z" stroke-width="16" stroke-linecap="round" stroke-linejoin="round" stroke="#d9dbee" transform="matrix(1,0,0,1,0,306.4617919921875)" opacity="1" style="animation-play-state:paused" ></path>
<path d="M1160 -53.42781791054949L1160 0Z" stroke-width="16" stroke-linecap="round" stroke-linejoin="round" stroke="#3b4368" transform="matrix(1,0,0,1,0,223.1663360595703)" opacity="1" style="animation-play-state:paused" ></path>
<path d="M1192 -104.20445755466062L1192 0Z" stroke-width="16" stroke-linecap="round" stroke-linejoin="round" stroke="#5e6fa3" transform="matrix(1,0,0,1,0,374.6510925292969)" opacity="1" style="animation-play-state:paused" ></path>
<path d="M1192 -9.673875473170483L1192 0Z" stroke-width="16" stroke-linecap="round" stroke-linejoin="round" stroke="#b3b7e2" transform="matrix(1,0,0,1,0,329.3146667480469)" opacity="1" style="animation-play-state:paused" ></path>
<path d="M1192 -59.16260571321618L1192 0Z" stroke-width="16" stroke-linecap="round" stroke-linejoin="round" stroke="#d9dbee" transform="matrix(1,0,0,1,0,226.41346740722656)" opacity="1" style="animation-play-state:paused" ></path>
<path d="M1224 -12.043338319483155L1224 0Z" stroke-width="16" stroke-linecap="round" stroke-linejoin="round" stroke="#191d3a" transform="matrix(1,0,0,1,0,349.7018127441406)" opacity="1" style="animation-play-state:paused" ></path>
<path d="M1224 -78.81532613351737L1224 0Z" stroke-width="16" stroke-linecap="round" stroke-linejoin="round" stroke="#3b4368" transform="matrix(1,0,0,1,0,495.376220703125)" opacity="0.2375" style="opacity:0.2375;animation-play-state:paused" ></path>
<path d="M1224 -26.287511590548092L1224 0Z" stroke-width="16" stroke-linecap="round" stroke-linejoin="round" stroke="#3b4368" transform="matrix(1,0,0,1,0,97.15094757080078)" opacity="1" style="animation-play-state:paused" ></path>
<path d="M1256 -118.39381078405131L1256 0Z" stroke-width="16" stroke-linecap="round" stroke-linejoin="round" stroke="#689cc5" transform="matrix(1,0,0,1,0,152.6067352294922)" opacity="1" style="animation-play-state:paused" ></path>
<path d="M1256 -34.463505391962826L1256 0Z" stroke-width="16" stroke-linecap="round" stroke-linejoin="round" stroke="#689cc5" transform="matrix(1,0,0,1,0,387.13427734375)" opacity="1" style="animation-play-state:paused" ></path>
<path d="M1256 -112.53918300081568L1256 0Z" stroke-width="16" stroke-linecap="round" stroke-linejoin="round" stroke="#d9dbee" transform="matrix(1,0,0,1,0,122.6348648071289)" opacity="1" style="animation-play-state:paused" ></path>
<path d="M1288 -22.410891210631235L1288 0Z" stroke-width="16" stroke-linecap="round" stroke-linejoin="round" stroke="#689cc5" transform="matrix(1,0,0,1,0,184.94046020507812)" opacity="1" style="animation-play-state:paused" ></path>
<path d="M1288 -7.718486796380603L1288 0Z" stroke-width="16" stroke-linecap="round" stroke-linejoin="round" stroke="#5e6fa3" transform="matrix(1,0,0,1,0,297.2777404785156)" opacity="1" style="animation-play-state:paused" ></path>
<path d="M1288 -61.97374358880916L1288 0Z" stroke-width="16" stroke-linecap="round" stroke-linejoin="round" stroke="#d9dbee" transform="matrix(1,0,0,1,0,466.3557434082031)" opacity="0.5165" style="opacity:0.5165;animation-play-state:paused" ></path>
<path d="M1320 -85.76988907129999L1320 0Z" stroke-width="16" stroke-linecap="round" stroke-linejoin="round" stroke="#d9dbee" transform="matrix(1,0,0,1,0,394.9487609863281)" opacity="1" style="animation-play-state:paused" ></path>
<path d="M1320 -85.86490133232655L1320 0Z" stroke-width="16" stroke-linecap="round" stroke-linejoin="round" stroke="#5e6fa3" transform="matrix(1,0,0,1,0,14.978304862976074)" opacity="1" style="animation-play-state:paused" ></path>
<path d="M1320 -24.270950095808075L1320 0Z" stroke-width="16" stroke-linecap="round" stroke-linejoin="round" stroke="#d9dbee" transform="matrix(1,0,0,1,0,47.17125701904297)" opacity="1" style="animation-play-state:paused" ></path>
<path d="M1352 -45.86044003091229L1352 0Z" stroke-width="16" stroke-linecap="round" stroke-linejoin="round" stroke="#689cc5" transform="matrix(1,0,0,1,0,371.8052062988281)" opacity="1" style="animation-play-state:paused" ></path>
<path d="M1352 -58.90932858836459L1352 0Z" stroke-width="16" stroke-linecap="round" stroke-linejoin="round" stroke="#191d3a" transform="matrix(1,0,0,1,0,476.07684326171875)" opacity="0.423042" style="opacity:0.423042;animation-play-state:paused" ></path>
<path d="M1352 -43.27002903136599L1352 0Z" stroke-width="16" stroke-linecap="round" stroke-linejoin="round" stroke="#3b4368" transform="matrix(1,0,0,1,0,369.1528015136719)" opacity="1" style="animation-play-state:paused" ></path>
<path d="M1384 -76.06104965489067L1384 0Z" stroke-width="16" stroke-linecap="round" stroke-linejoin="round" stroke="#d9dbee" transform="matrix(1,0,0,1,0,404.8302917480469)" opacity="1" style="animation-play-state:paused" ></path>
<path d="M1384 -34.78834369188189L1384 0Z" stroke-width="16" stroke-linecap="round" stroke-linejoin="round" stroke="#191d3a" transform="matrix(1,0,0,1,0,83.83689880371094)" opacity="1" style="animation-play-state:paused" ></path>
<path d="M1384 -133.2078826527104L1384 0Z" stroke-width="16" stroke-linecap="round" stroke-linejoin="round" stroke="#93dbe9" transform="matrix(1,0,0,1,0,199.398681640625)" opacity="1" style="animation-play-state:paused" ></path>
<path d="M1416 -62.981644815687105L1416 0Z" stroke-width="16" stroke-linecap="round" stroke-linejoin="round" stroke="#93dbe9" transform="matrix(1,0,0,1,0,454.5499267578125)" opacity="0.63" style="opacity:0.63;animation-play-state:paused" ></path>
<path d="M1416 -62.33788730739434L1416 0Z" stroke-width="16" stroke-linecap="round" stroke-linejoin="round" stroke="#d9dbee" transform="matrix(1,0,0,1,0,356.5505065917969)" opacity="1" style="animation-play-state:paused" ></path>
<path d="M1416 -57.79298876386383L1416 0Z" stroke-width="16" stroke-linecap="round" stroke-linejoin="round" stroke="#b3b7e2" transform="matrix(1,0,0,1,0,143.1780242919922)" opacity="1" style="animation-play-state:paused" ></path>
<path d="M1448 -62.7105335649394L1448 0Z" stroke-width="16" stroke-linecap="round" stroke-linejoin="round" stroke="#d9dbee" transform="matrix(1,0,0,1,0,88.93368530273438)" opacity="1" style="animation-play-state:paused" ></path>
<path d="M1448 -87.22854452952379L1448 0Z" stroke-width="16" stroke-linecap="round" stroke-linejoin="round" stroke="#5e6fa3" transform="matrix(1,0,0,1,0,175.8910675048828)" opacity="1" style="animation-play-state:paused" ></path>
<path d="M1448 -29.8596455903662L1448 0Z" stroke-width="16" stroke-linecap="round" stroke-linejoin="round" stroke="#d9dbee" transform="matrix(1,0,0,1,0,414.19171142578125)" opacity="1" style="animation-play-state:paused" ></path>
<path d="M1480 -123.26649355049085L1480 0Z" stroke-width="16" stroke-linecap="round" stroke-linejoin="round" stroke="#191d3a" transform="matrix(1,0,0,1,0,127.62763977050781)" opacity="1" style="animation-play-state:paused" ></path>
<path d="M1480 -118.212239346366L1480 0Z" stroke-width="16" stroke-linecap="round" stroke-linejoin="round" stroke="#191d3a" transform="matrix(1,0,0,1,0,293.94921875)" opacity="1" style="animation-play-state:paused" ></path>
<path d="M1480 -61.2629874296008L1480 0Z" stroke-width="16" stroke-linecap="round" stroke-linejoin="round" stroke="#689cc5" transform="matrix(1,0,0,1,0,436.1307067871094)" opacity="0.807081" style="opacity:0.807081;animation-play-state:paused" ></path>
<path d="M1512 -29.54692044496369L1512 0Z" stroke-width="16" stroke-linecap="round" stroke-linejoin="round" stroke="#5e6fa3" transform="matrix(1,0,0,1,0,481.23004150390625)" opacity="0.3735" style="opacity:0.3735;animation-play-state:paused" ></path>
<path d="M1512 -21.276536049501374L1512 0Z" stroke-width="16" stroke-linecap="round" stroke-linejoin="round" stroke="#191d3a" transform="matrix(1,0,0,1,0,492.6170349121094)" opacity="0.264026" style="opacity:0.264026;animation-play-state:paused" ></path>
<path d="M1512 -66.95994943270853L1512 0Z" stroke-width="16" stroke-linecap="round" stroke-linejoin="round" stroke="#3b4368" transform="matrix(1,0,0,1,0,59.70518493652344)" opacity="1" style="animation-play-state:paused" ></path>
<path d="M1544 -51.46584547664679L1544 0Z" stroke-width="16" stroke-linecap="round" stroke-linejoin="round" stroke="#d9dbee" transform="matrix(1,0,0,1,0,218.7456512451172)" opacity="1" style="animation-play-state:paused" ></path>
<path d="M1544 -36.75496971262328L1544 0Z" stroke-width="16" stroke-linecap="round" stroke-linejoin="round" stroke="#191d3a" transform="matrix(1,0,0,1,0,335.01702880859375)" opacity="1" style="animation-play-state:paused" ></path>
<path d="M1544 -30.137930713346577L1544 0Z" stroke-width="16" stroke-linecap="round" stroke-linejoin="round" stroke="#689cc5" transform="matrix(1,0,0,1,0,467.4946594238281)" opacity="0.505551" style="opacity:0.505551;animation-play-state:paused" ></path>
<path d="M1576 -65.36920214269776L1576 0Z" stroke-width="16" stroke-linecap="round" stroke-linejoin="round" stroke="#5e6fa3" transform="matrix(1,0,0,1,0,237.49227905273438)" opacity="1" style="animation-play-state:paused" ></path>
<path d="M1576 -6.063313115962956L1576 0Z" stroke-width="16" stroke-linecap="round" stroke-linejoin="round" stroke="#d9dbee" transform="matrix(1,0,0,1,0,221.19003295898438)" opacity="1" style="animation-play-state:paused" ></path>
<path d="M1576 -73.87667341757333L1576 0Z" stroke-width="16" stroke-linecap="round" stroke-linejoin="round" stroke="#93dbe9" transform="matrix(1,0,0,1,0,456.5718994140625)" opacity="0.610561" style="opacity:0.610561;animation-play-state:paused" ></path></g></svg>